Game.of.Thrones.S02E07.HDTV.XviD-Atilla82


screenshots included in torrent



Game of Thrones (2012)

//www.imdb.com/title/tt0944947/

Seven noble families fight for control of the mythical land of Westeros.



language: English


General
Complete name : Game.of.Thrones.S02E07.HDTV.XviD-Atilla82.avi
Format : AVI
Format/Info : Audio Video Interleave
File size : 352 MiB
Duration : 56mn 44s
Overall bit rate : 866 Kbps
Writing application : Lavf52.61.0

Video
ID : 0
Format : MPEG-4 Visual
Format profile : Advanced Simple@L5
Format settings, BVOP : No
Format settings, QPel : Yes
Format settings, GMC : No warppoints
Format settings, Matrix : Default (H.263)
Codec ID : XVID
Codec ID/Hint : XviD
Duration : 56mn 44s
Bit rate : 726 Kbps
Width : 680 pixels
Height : 380 pixels
Display aspect ratio : 16:9
Frame rate : 23.976 fps
Color space : YUV
Chroma subsampling : 4:2:0
Bit depth : 8 bits
Scan type : Progressive
Compression mode : Lossy
Bits/(Pixel*Frame) : 0.117
Stream size : 294 MiB (84%)
Writing library : XviD 64

Audio
ID : 1
Format : MPEG Audio
Format version : Version 1
Format profile : Layer 3
Codec ID : 55
Codec ID/Hint : MP3
Duration : 56mn 44s
Bit rate mode : Constant
Bit rate : 128 Kbps
Channel(s) : 2 channels
Sampling rate : 48.0 KHz
Compression mode : Lossy
Stream size : 51.9 MiB (15%)
Alignment : Aligned on interleaves
Interleave, duration : 24 ms (0.58 video frame)




SCREENSHOTS 
http://www.pohrani.com/f/2/aE/4keuhSU1/gameofthroness02e07scree.jpg

